name C:\Users\u0101727\Documents\MyRepositories\upper-imu-dc\OpenSim\subject0\MA\ResultsMA\grid_4nodes_9dim\angles_7.mot
datacolumns 10
datarows 28
range 750.01000000 750.28000000
endheader 
time	clav_prot	clav_elev	scapula_abduction	scapula_elevation	scapula_upward_rot	scapula_winging	plane_elv	shoulder_elv	axial_rot	
        750.01000000	        -50.00000000	         10.00000000	         15.00000000	         10.00000000	          0.00000000	        -10.00000000	         30.00000000	        -10.00000000	        -30.00000000	
        750.02000000	        -38.33333333	         10.00000000	         15.00000000	         10.00000000	          0.00000000	        -10.00000000	         30.00000000	        -10.00000000	        -30.00000000	
        750.03000000	        -26.66666667	         10.00000000	         15.00000000	         10.00000000	          0.00000000	        -10.00000000	         30.00000000	        -10.00000000	        -30.00000000	
        750.04000000	        -15.00000000	         10.00000000	         15.00000000	         10.00000000	          0.00000000	        -10.00000000	         30.00000000	        -10.00000000	        -30.00000000	
        750.05000000	        -50.00000000	         20.00000000	         15.00000000	         10.00000000	          0.00000000	        -10.00000000	         30.00000000	        -10.00000000	        -30.00000000	
        750.06000000	        -38.33333333	         20.00000000	         15.00000000	         10.00000000	          0.00000000	        -10.00000000	         30.00000000	        -10.00000000	        -30.00000000	
        750.07000000	        -26.66666667	         20.00000000	         15.00000000	         10.00000000	          0.00000000	        -10.00000000	         30.00000000	        -10.00000000	        -30.00000000	
        750.08000000	        -15.00000000	         20.00000000	         15.00000000	         10.00000000	          0.00000000	        -10.00000000	         30.00000000	        -10.00000000	        -30.00000000	
        750.09000000	        -50.00000000	        -10.00000000	        -40.00000000	        -10.00000000	         30.00000000	        -10.00000000	         30.00000000	        -10.00000000	        -30.00000000	
        750.10000000	        -38.33333333	        -10.00000000	        -40.00000000	        -10.00000000	         30.00000000	        -10.00000000	         30.00000000	        -10.00000000	        -30.00000000	
        750.11000000	        -26.66666667	        -10.00000000	        -40.00000000	        -10.00000000	         30.00000000	        -10.00000000	         30.00000000	        -10.00000000	        -30.00000000	
        750.12000000	        -15.00000000	        -10.00000000	        -40.00000000	        -10.00000000	         30.00000000	        -10.00000000	         30.00000000	        -10.00000000	        -30.00000000	
        750.13000000	        -50.00000000	          0.00000000	        -40.00000000	        -10.00000000	         30.00000000	        -10.00000000	         30.00000000	        -10.00000000	        -30.00000000	
        750.14000000	        -38.33333333	          0.00000000	        -40.00000000	        -10.00000000	         30.00000000	        -10.00000000	         30.00000000	        -10.00000000	        -30.00000000	
        750.15000000	        -26.66666667	          0.00000000	        -40.00000000	        -10.00000000	         30.00000000	        -10.00000000	         30.00000000	        -10.00000000	        -30.00000000	
        750.16000000	        -15.00000000	          0.00000000	        -40.00000000	        -10.00000000	         30.00000000	        -10.00000000	         30.00000000	        -10.00000000	        -30.00000000	
        750.17000000	        -50.00000000	         10.00000000	        -40.00000000	        -10.00000000	         30.00000000	        -10.00000000	         30.00000000	        -10.00000000	        -30.00000000	
        750.18000000	        -38.33333333	         10.00000000	        -40.00000000	        -10.00000000	         30.00000000	        -10.00000000	         30.00000000	        -10.00000000	        -30.00000000	
        750.19000000	        -26.66666667	         10.00000000	        -40.00000000	        -10.00000000	         30.00000000	        -10.00000000	         30.00000000	        -10.00000000	        -30.00000000	
        750.20000000	        -15.00000000	         10.00000000	        -40.00000000	        -10.00000000	         30.00000000	        -10.00000000	         30.00000000	        -10.00000000	        -30.00000000	
        750.21000000	        -50.00000000	         20.00000000	        -40.00000000	        -10.00000000	         30.00000000	        -10.00000000	         30.00000000	        -10.00000000	        -30.00000000	
        750.22000000	        -38.33333333	         20.00000000	        -40.00000000	        -10.00000000	         30.00000000	        -10.00000000	         30.00000000	        -10.00000000	        -30.00000000	
        750.23000000	        -26.66666667	         20.00000000	        -40.00000000	        -10.00000000	         30.00000000	        -10.00000000	         30.00000000	        -10.00000000	        -30.00000000	
        750.24000000	        -15.00000000	         20.00000000	        -40.00000000	        -10.00000000	         30.00000000	        -10.00000000	         30.00000000	        -10.00000000	        -30.00000000	
        750.25000000	        -50.00000000	        -10.00000000	        -21.66666667	        -10.00000000	         30.00000000	        -10.00000000	         30.00000000	        -10.00000000	        -30.00000000	
        750.26000000	        -38.33333333	        -10.00000000	        -21.66666667	        -10.00000000	         30.00000000	        -10.00000000	         30.00000000	        -10.00000000	        -30.00000000	
        750.27000000	        -26.66666667	        -10.00000000	        -21.66666667	        -10.00000000	         30.00000000	        -10.00000000	         30.00000000	        -10.00000000	        -30.00000000	
        750.28000000	        -15.00000000	        -10.00000000	        -21.66666667	        -10.00000000	         30.00000000	        -10.00000000	         30.00000000	        -10.00000000	        -30.00000000	
